<svg version="1.1" xmlns="http://www.w3.org/2000/svg" viewBox="0 0 979.8492767810822 1062.9601707160473" width="979.8492767810822" height="1062.9601707160473">
  <!-- svg-source:excalidraw -->
  
  <defs>
    <style class="style-fonts">
      @font-face {
        font-family: "Virgil";
        src: url("https://excalidraw.com/Virgil.woff2");
      }
      @font-face {
        font-family: "Cascadia";
        src: url("https://excalidraw.com/Cascadia.woff2");
      }
    </style>
    
  </defs>
  <rect x="0" y="0" width="979.8492767810822" height="1062.9601707160473" fill="#ffffff"></rect><g stroke-linecap="round" transform="translate(480.20324927568436 10) rotate(0 243 68.5)"><path d="M32 0 C150.62 2, 267.15 1.3, 454 0 M32 0 C135.9 0.42, 239.75 0.46, 454 0 M454 0 C474.95 0.87, 485.49 10.36, 486 32 M454 0 C476.11 0.52, 485.06 8.59, 486 32 M486 32 C484 58.76, 484.29 86.03, 486 105 M486 32 C485.6 54.9, 485.25 78.87, 486 105 M486 105 C487.62 127.09, 475.94 135.96, 454 137 M486 105 C487.53 127.7, 477.15 137.1, 454 137 M454 137 C312.32 138.16, 171.74 139.11, 32 137 M454 137 C366.02 137.88, 278.07 137.88, 32 137 M32 137 C9.23 137.55, -0.83 127.31, 0 105 M32 137 C10.9 135.13, 1.11 125.47, 0 105 M0 105 C-1.54 78.79, 1.11 50.46, 0 32 M0 105 C0.45 81.8, 0.83 55.94, 0 32 M0 32 C0.96 9.04, 11.45 1.12, 32 0 M0 32 C-0.9 10.01, 11.66 2.18, 32 0" stroke="#1e1e1e" stroke-width="2" fill="none"></path></g><g transform="translate(520.2032492756844 39) rotate(0 212.74981689453125 37.5)"><text x="0" y="0" font-family="Virgil, Segoe UI Emoji" font-size="20px" fill="#1e1e1e" text-anchor="start" style="white-space: pre;" direction="ltr" dominant-baseline="text-before-edge">Welcome to CaviDB audio search engine! </text><text x="0" y="25" font-family="Virgil, Segoe UI Emoji" font-size="20px" fill="#1e1e1e" text-anchor="start" style="white-space: pre;" direction="ltr" dominant-baseline="text-before-edge">First, we need the Protein Data Bank ID </text><text x="0" y="50" font-family="Virgil, Segoe UI Emoji" font-size="20px" fill="#1e1e1e" text-anchor="start" style="white-space: pre;" direction="ltr" dominant-baseline="text-before-edge">for your target. </text></g><g stroke-linecap="round"><g transform="translate(704.0355561297022 512.623043834813) rotate(0 0.564496492389992 9.655982924876696)"><path d="M-0.07 -0.03 C0.13 3.19, 0.99 16.08, 1.2 19.32 M0.16 -0.17 C0.35 3.07, 0.98 16.26, 1.14 19.48" stroke="#1e1e1e" stroke-width="2" fill="none"></path></g><g transform="translate(704.0355561297022 512.623043834813) rotate(0 0.564496492389992 9.655982924876696)"><path d="M-2.62 10.54 C-1.52 13.32, -0.43 15.98, 1.14 19.48 M-2.62 10.54 C-1.34 13.57, -0.02 16.77, 1.14 19.48" stroke="#1e1e1e" stroke-width="2" fill="none"></path></g><g transform="translate(704.0355561297022 512.623043834813) rotate(0 0.564496492389992 9.655982924876696)"><path d="M4.01 10.21 C3.13 13.09, 2.25 15.85, 1.14 19.48 M4.01 10.21 C3 13.36, 2.04 16.67, 1.14 19.48" stroke="#1e1e1e" stroke-width="2" fill="none"></path></g></g><mask></mask><g transform="translate(743.7593109607697 217.5) rotate(0 54.0899658203125 12.5)"><text x="0" y="0" font-family="Virgil, Segoe UI Emoji" font-size="20px" fill="#1e1e1e" text-anchor="start" style="white-space: pre;" direction="ltr" dominant-baseline="text-before-edge">&lt;PDB_ID&gt;</text></g><g stroke-linecap="round" transform="translate(536.3492767810822 772) rotate(0 174.5 40)"><path d="M20 0 C123.3 -1.12, 227.81 -1.55, 329 0 M20 0 C134.7 1.35, 248.54 1.37, 329 0 M329 0 C344 -0.73, 347.52 6.09, 349 20 M329 0 C344.52 1.29, 349.32 7.44, 349 20 M349 20 C350.76 33.13, 350.11 49.06, 349 60 M349 20 C349.89 29.02, 349.17 39.92, 349 60 M349 60 C350.6 73.76, 342.28 78.85, 329 80 M349 60 C346.79 72.56, 342.03 78.02, 329 80 M329 80 C255.18 81.74, 181.99 79.66, 20 80 M329 80 C229.8 79.27, 129.92 77.89, 20 80 M20 80 C6.38 79.01, 1.67 72.02, 0 60 M20 80 C5.99 79.18, -0.3 75.17, 0 60 M0 60 C0.86 48.85, 0.22 42.51, 0 20 M0 60 C-0.64 50.19, -0.74 40.15, 0 20 M0 20 C1.71 5.86, 8.64 -1.13, 20 0 M0 20 C-2.23 6.06, 6.11 -1.85, 20 0" stroke="#1e1e1e" stroke-width="2" fill="none"></path></g><g transform="translate(592.0594208240509 787.5) rotate(0 118.78985595703125 25)"><text x="0" y="0" font-family="Virgil, Segoe UI Emoji" font-size="20px" fill="#1e1e1e" text-anchor="start" style="white-space: pre;" direction="ltr" dominant-baseline="text-before-edge">Which model do are you </text><text x="0" y="25" font-family="Virgil, Segoe UI Emoji" font-size="20px" fill="#1e1e1e" text-anchor="start" style="white-space: pre;" direction="ltr" dominant-baseline="text-before-edge">interested in?</text></g><g stroke-linecap="round"><g transform="translate(710.0996938240156 706.0941653502666) rotate(0 0.7495829570665933 24.698491025321573)"><path d="M-0.04 -0.12 C0.23 8.11, 1.24 41.26, 1.54 49.52 M0.21 0.14 C0.46 8.32, 1.14 41.06, 1.39 49.3" stroke="#1e1e1e" stroke-width="2" fill="none"></path></g><g transform="translate(710.0996938240156 706.0941653502666) rotate(0 0.7495829570665933 24.698491025321573)"><path d="M-7.65 26.27 C-5.55 32.01, -2.86 38.28, 1.39 49.3 M-7.65 26.27 C-4.99 32.79, -2.48 39.12, 1.39 49.3" stroke="#1e1e1e" stroke-width="2" fill="none"></path></g><g transform="translate(710.0996938240156 706.0941653502666) rotate(0 0.7495829570665933 24.698491025321573)"><path d="M9.26 25.85 C7.05 31.69, 5.43 38.07, 1.39 49.3 M9.26 25.85 C7.19 32.5, 4.97 38.95, 1.39 49.3" stroke="#1e1e1e" stroke-width="2" fill="none"></path></g></g><mask></mask><g transform="translate(753.9493210315704 720.0324543040615) rotate(0 55.89995574951172 12.5)"><text x="0" y="0" font-family="Virgil, Segoe UI Emoji" font-size="20px" fill="#1e1e1e" text-anchor="start" style="white-space: pre;" direction="ltr" dominant-baseline="text-before-edge">&lt;chain_ID&gt;</text></g><g stroke-linecap="round"><g transform="translate(710.4716412797375 871.2016012292725) rotate(0 1.0343265665002264 43.04281642504964)"><path d="M-0.15 -0.1 C0.17 14.24, 1.59 71.65, 1.93 86 M0.05 0.17 C0.42 14.54, 1.86 71.87, 2.22 86.19" stroke="#1e1e1e" stroke-width="2" fill="none"></path></g><g transform="translate(710.4716412797375 871.2016012292725) rotate(0 1.0343265665002264 43.04281642504964)"><path d="M-8.75 58.26 C-5.57 66.73, -1.98 75.3, 2.22 86.19 M-8.75 58.26 C-5.59 65.95, -2.83 73.56, 2.22 86.19" stroke="#1e1e1e" stroke-width="2" fill="none"></path></g><g transform="translate(710.4716412797375 871.2016012292725) rotate(0 1.0343265665002264 43.04281642504964)"><path d="M11.77 57.75 C8.6 66.35, 5.85 75.07, 2.22 86.19 M11.77 57.75 C9.29 65.56, 6.42 73.31, 2.22 86.19" stroke="#1e1e1e" stroke-width="2" fill="none"></path></g></g><mask></mask><g transform="translate(744.7793228626251 902.7016012292725) rotate(0 58.06995391845703 12.5)"><text x="0" y="0" font-family="Virgil, Segoe UI Emoji" font-size="20px" fill="#1e1e1e" text-anchor="start" style="white-space: pre;" direction="ltr" dominant-baseline="text-before-edge">&lt;model_ID&gt;</text></g><g stroke-linecap="round" transform="translate(491.34927678108215 972.9601707160473) rotate(0 219.99999999999994 40)"><path d="M20 0 C163.87 1.01, 310.95 2.96, 420 0 M20 0 C168.8 2.71, 317.31 2.63, 420 0 M420 0 C434.39 -1.32, 439.41 7.94, 440 20 M420 0 C434.64 1.26, 441.91 6.54, 440 20 M440 20 C440.6 33.6, 439.03 48.68, 440 60 M440 20 C440.46 34.05, 440.83 47.44, 440 60 M440 60 C440.06 74.83, 433.42 78.78, 420 80 M440 60 C441.19 74.85, 434.98 78.08, 420 80 M420 80 C283.76 78.84, 147.64 77.78, 20 80 M420 80 C310.51 79.95, 200.37 79.54, 20 80 M20 80 C8.35 79.88, -1.3 75.23, 0 60 M20 80 C8.45 78.47, 0.13 71.85, 0 60 M0 60 C-1.39 53.15, 0.98 42.92, 0 20 M0 60 C0.69 50.83, 0.6 40.7, 0 20 M0 20 C0.85 8.51, 7.63 1.47, 20 0 M0 20 C2.24 6.79, 8.12 1.49, 20 0" stroke="#1e1e1e" stroke-width="2" fill="none"></path></g><g transform="translate(506.64934849739075 1000.4601707160473) rotate(0 204.759765625 12.5)"><text x="0" y="0" font-family="Virgil, Segoe UI Emoji" font-size="20px" fill="#1e1e1e" text-anchor="start" style="white-space: pre;" direction="ltr" dominant-baseline="text-before-edge">In the link above you will find your result</text></g><g stroke-linecap="round" transform="translate(451.84927678108215 559.9601707160473) rotate(0 259 56.5)"><path d="M28.25 0 C175.63 -0.15, 322.85 -0.35, 489.75 0 M28.25 0 C143.45 -1.87, 259.61 -1.73, 489.75 0 M489.75 0 C507.82 -1.99, 516.62 10.84, 518 28.25 M489.75 0 C510.6 1.26, 516.99 11.22, 518 28.25 M518 28.25 C518.21 42.99, 517.72 58.73, 518 84.75 M518 28.25 C517.7 42.07, 517.01 56.63, 518 84.75 M518 84.75 C519.64 103.45, 508.86 111.77, 489.75 113 M518 84.75 C516.38 104.18, 509.55 112.15, 489.75 113 M489.75 113 C331.44 112.94, 172.23 112.23, 28.25 113 M489.75 113 C397.07 112.97, 305.06 113.01, 28.25 113 M28.25 113 C10.45 111.33, -0.07 104.64, 0 84.75 M28.25 113 C10.21 113.1, 1.27 102.92, 0 84.75 M0 84.75 C-0.29 69.49, 0.31 52.84, 0 28.25 M0 84.75 C0.41 64.36, -0.65 46.26, 0 28.25 M0 28.25 C-0.58 9.44, 8.1 0.19, 28.25 0 M0 28.25 C1.71 9.11, 8.17 0.88, 28.25 0" stroke="#1e1e1e" stroke-width="2" fill="none"></path></g><g transform="translate(472.649539232254 578.251194447279) rotate(0 238.19973754882812 37.5)"><text x="0" y="0" font-family="Virgil, Segoe UI Emoji" font-size="20px" fill="#1e1e1e" text-anchor="start" style="white-space: pre;" direction="ltr" dominant-baseline="text-before-edge">We found chains &lt;PDB_chains array n - 1&gt; and </text><text x="0" y="25" font-family="Virgil, Segoe UI Emoji" font-size="20px" fill="#1e1e1e" text-anchor="start" style="white-space: pre;" direction="ltr" dominant-baseline="text-before-edge">&lt;PDB_cahins array[n-1]&gt;. Which chain are </text><text x="0" y="50" font-family="Virgil, Segoe UI Emoji" font-size="20px" fill="#1e1e1e" text-anchor="start" style="white-space: pre;" direction="ltr" dominant-baseline="text-before-edge">interested in?</text></g><g stroke-linecap="round" transform="translate(551.028453707695 269.1266128718853) rotate(0 149 115.5)"><path d="M187.5 29 C206.36 43.98, 225.21 58.96, 260.5 87 M187.5 29 C210.96 47.64, 234.43 66.29, 260.5 87 M260.5 87 C298 116, 298 116, 260.5 145 M260.5 87 C298 116, 298 116, 260.5 145 M260.5 145 C238.54 162.15, 216.57 179.3, 187.5 202 M260.5 145 C235.15 164.79, 209.8 184.59, 187.5 202 M187.5 202 C150 231, 150 231, 112.5 202 M187.5 202 C150 231, 150 231, 112.5 202 M112.5 202 C90.42 185.22, 68.33 168.43, 37.5 145 M112.5 202 C87.52 183.01, 62.54 164.03, 37.5 145 M37.5 145 C0 116, 0 116, 37.5 87 M37.5 145 C0 116, 0 116, 37.5 87 M37.5 87 C64.26 66.3, 91.02 45.61, 112.5 29 M37.5 87 C61.7 68.28, 85.9 49.57, 112.5 29 M112.5 29 C150 0, 150 0, 187.5 29 M112.5 29 C150 0, 150 0, 187.5 29" stroke="#1e1e1e" stroke-width="2" fill="none"></path></g><g stroke-linecap="round"><g transform="translate(701.5631427989438 159.06674235824852) rotate(0 0.5017665398616487 45.977533401477416)"><path d="M-0.11 -0.08 C0.06 15.25, 0.95 76.55, 1.12 91.9 M0.1 0.2 C0.25 15.55, 0.86 76.7, 1.04 92.03" stroke="#1e1e1e" stroke-width="2" fill="none"></path></g><g transform="translate(701.5631427989438 159.06674235824852) rotate(0 0.5017665398616487 45.977533401477416)"><path d="M-9.52 63.96 C-5.83 74.41, -2.02 84.29, 1.04 92.03 M-9.52 63.96 C-6.18 73.06, -2.82 81.92, 1.04 92.03" stroke="#1e1e1e" stroke-width="2" fill="none"></path></g><g transform="translate(701.5631427989438 159.06674235824852) rotate(0 0.5017665398616487 45.977533401477416)"><path d="M11 63.73 C7.18 74.25, 3.48 84.21, 1.04 92.03 M11 63.73 C7.77 72.9, 4.57 81.84, 1.04 92.03" stroke="#1e1e1e" stroke-width="2" fill="none"></path></g></g><mask></mask><g transform="translate(582.026653945446 369.53377506136894) rotate(0 112.19989013671875 12.5)"><text x="0" y="0" font-family="Virgil, Segoe UI Emoji" font-size="20px" fill="#1e1e1e" text-anchor="start" style="white-space: pre;" direction="ltr" dominant-baseline="text-before-edge">Is the PDB_ID valid?</text></g><g stroke-linecap="round" transform="translate(10 260.42235973477364) rotate(0 243.00000000000003 68.5)"><path d="M32 0 C181.31 0.8, 331.09 1.14, 454 0 M32 0 C117.98 -1.64, 203.43 -1.27, 454 0 M454 0 C476.19 -0.48, 486.46 12.32, 486 32 M454 0 C473.97 2.05, 486.43 9.08, 486 32 M486 32 C488.25 60.3, 487.43 86.8, 486 105 M486 32 C485.43 49.14, 484.94 68.46, 486 105 M486 105 C484.02 126.91, 477.14 137.36, 454 137 M486 105 C488.21 126.84, 475.16 139.19, 454 137 M454 137 C320.36 138.26, 185.57 138.55, 32 137 M454 137 C312.25 135.43, 171.7 135.59, 32 137 M32 137 C12.01 135.62, -0.79 124.94, 0 105 M32 137 C11.81 137.38, 1.08 125.73, 0 105 M0 105 C1.06 84.89, 1.38 60.23, 0 32 M0 105 C-0.49 85.37, -1.27 63.94, 0 32 M0 32 C0.81 9.3, 9.65 1.45, 32 0 M0 32 C-0.11 12.17, 8.78 0.84, 32 0" stroke="#1e1e1e" stroke-width="2" fill="none"></path></g><g transform="translate(46.860198974609375 308.92235973477364) rotate(0 201.13980102539062 25)"><text x="0" y="0" font-family="Virgil, Segoe UI Emoji" font-size="20px" fill="#1e1e1e" text-anchor="start" style="white-space: pre;" direction="ltr" dominant-baseline="text-before-edge">Sorry, the PDB ID provided is not valid.</text><text x="0" y="25" font-family="Virgil, Segoe UI Emoji" font-size="20px" fill="#1e1e1e" text-anchor="start" style="white-space: pre;" direction="ltr" dominant-baseline="text-before-edge">     Please,provide a four number ID</text></g><g transform="translate(735.0329232215881 510.0783350765705) rotate(0 26.489974975585938 12.5)"><text x="0" y="0" font-family="Virgil, Segoe UI Emoji" font-size="20px" fill="#1e1e1e" text-anchor="start" style="white-space: pre;" direction="ltr" dominant-baseline="text-before-edge">&lt;yes&gt;</text></g><g stroke-linecap="round"><g transform="translate(595.1228890419006 440.5783350765705) rotate(0 -179.5 21.615092915376408)"><path d="M0 0 C-44.17 11.67, -205.17 74.5, -265 70 C-324.83 65.5, -343.33 -10.83, -359 -27 M0 0 C-44.17 11.67, -205.17 74.5, -265 70 C-324.83 65.5, -343.33 -10.83, -359 -27" stroke="#1e1e1e" stroke-width="2" fill="none"></path></g><g transform="translate(595.1228890419006 440.5783350765705) rotate(0 -179.5 21.615092915376408)"><path d="M-335.92 -7.83 C-341.31 -12.31, -346.7 -16.78, -359 -27 M-335.92 -7.83 C-340.63 -11.74, -345.33 -15.65, -359 -27" stroke="#1e1e1e" stroke-width="2" fill="none"></path></g><g transform="translate(595.1228890419006 440.5783350765705) rotate(0 -179.5 21.615092915376408)"><path d="M-353.64 2.52 C-354.89 -4.37, -356.14 -11.27, -359 -27 M-353.64 2.52 C-354.73 -3.5, -355.83 -9.52, -359 -27" stroke="#1e1e1e" stroke-width="2" fill="none"></path></g></g><mask></mask><g transform="translate(330.6329140663147 468.0783350765705) rotate(0 22.879981994628906 12.5)"><text x="0" y="0" font-family="Virgil, Segoe UI Emoji" font-size="20px" fill="#1e1e1e" text-anchor="start" style="white-space: pre;" direction="ltr" dominant-baseline="text-before-edge">&lt;No&gt;</text></g><g stroke-linecap="round"><g transform="translate(230.12288904190063 238.5783350765705) rotate(0 196 7.684316375429802)"><path d="M0 0 C39.5 -9.17, 171.67 -67, 237 -55 C302.33 -43, 366.17 50.83, 392 72 M0 0 C39.5 -9.17, 171.67 -67, 237 -55 C302.33 -43, 366.17 50.83, 392 72" stroke="#1e1e1e" stroke-width="2" fill="none"></path></g><g transform="translate(230.12288904190063 238.5783350765705) rotate(0 196 7.684316375429802)"><path d="M365.2 58.53 C372.9 62.4, 380.6 66.27, 392 72 M365.2 58.53 C373.61 62.76, 382.02 66.98, 392 72" stroke="#1e1e1e" stroke-width="2" fill="none"></path></g><g transform="translate(230.12288904190063 238.5783350765705) rotate(0 196 7.684316375429802)"><path d="M380.13 44.45 C383.54 52.37, 386.95 60.28, 392 72 M380.13 44.45 C383.85 53.1, 387.58 61.74, 392 72" stroke="#1e1e1e" stroke-width="2" fill="none"></path></g></g><mask></mask></svg>